<svg width="36" height="26" viewBox="0 0 36 26" fill="none" xmlns="http://www.w3.org/2000/svg">
<path d="M31.107 8.16568C32.3294 9.03455 24.8256 19.3886 20.9209 24.457C26.6251 23.5881 32.1257 15.4062 34.1629 11.4239C35.1815 8.5277 36.0982 2.51803 31.6163 1.64916C26.014 0.563078 17.3558 16.3113 15.3185 16.3113C13.2813 16.3113 4.11377 5.45047 5.13238 3.82133C5.94728 2.51803 12.7141 7.51651 13.2813 7.07959C13.8485 6.64267 9.65822 1.10612 7.67892 1.10612C5.81146 0.744097 1.87282 1.10613 1.05793 5.45047C0.0393122 10.8809 12.772 25 14.2999 25C15.8278 25 29.5791 7.07959 31.107 8.16568Z" stroke="black"/>
</svg>
